# xmcd
#
# Track frame offsets:
#	150
#	11000
#	28544
#	44374
#	75093
#	96277
#	111035
#	133742
#	154376
#	173177
#	188850
#	204277
#	237649
#
# Disc length: 3391 seconds
# Revision: 0
# Processed by: cddbd v1.5.2PL0 Copyright (c) Steve Scherf et al.
# Submitted via: dBpowerAMP V12.0
#
DISCID=a40d3d0d
DTITLE=The Andy Poxon Band - Red Roots
DYEAR=2011
DGENRE=Blues
TTITLE0=Hottest Thing in Town
TTITLE1=No Love
TTITLE2=Quitters Never Lose
TTITLE3=I Want You So Bad
TTITLE4=I Need My Girl
TTITLE5=I'll Sing the Blues
TTITLE6=Stop
TTITLE7=When
TTITLE8=Raining In
TTITLE9=Run of Bad Luck
TTITLE10=I Hate Being Alone
TTITLE11=Is There Anything I Can Do
TTITLE12=C'Mon Pretty Baby
EXTD=
EXTT0=
EXTT1=
EXTT2=
EXTT3=
EXTT4=
EXTT5=
EXTT6=
EXTT7=
EXTT8=
EXTT9=
EXTT10=
EXTT11=
EXTT12=
PLAYORDER=
